<svg width="414" height="434" viewBox="0 0 414 434" fill="none" xmlns="http://www.w3.org/2000/svg">
<rect width="434" height="434" transform="translate(-10)" fill="white"/>
<path fill-rule="evenodd" clip-rule="evenodd" d="M303.031 114.361C336.62 146.252 346.003 193.812 343.537 240.052C341.173 284.36 327.974 331.486 290.209 354.772C255.08 376.433 212.947 355.243 172.886 345.276C132.344 335.189 83.8691 334.754 63.389 298.339C41.6333 259.655 57.0668 212.692 75.666 172.41C95.5718 129.298 121.467 84.6451 167.481 72.8971C215.639 60.602 266.979 80.1306 303.031 114.361Z" fill="#E0CCF3"/>
<g clip-path="url(#clip0)">
<path d="M227.73 97.9014C229.423 97.5324 231.155 98.1855 232.749 98.8647C263.255 111.862 287.057 139.629 295.24 171.762C303.424 203.896 295.801 239.665 275.228 265.67C254.654 291.676 221.6 307.325 188.445 306.756C187.771 310.607 187.098 314.457 186.424 318.308C186.423 315.045 186.37 311.591 184.658 308.812C182.946 306.034 178.934 304.406 176.311 306.349C172.728 310.628 175.497 318.382 180.98 319.424C179.908 321.939 175.773 321.155 174.382 318.801C172.992 316.446 173.308 313.514 173.094 310.788C172.879 308.062 171.621 304.928 168.94 304.393C160.979 302.805 153.171 300.453 145.658 297.38C140.796 295.391 135.192 291.485 136.331 286.357C137.173 282.569 141.655 280.54 145.501 281.05C149.348 281.559 152.667 283.905 155.81 286.18C157.45 280.513 159.09 274.846 160.73 269.179C155.569 269.418 154.12 261.855 149.771 259.065C129.873 246.3 116.608 223.736 115.131 200.142C113.654 176.548 124.001 152.506 142.152 137.359C160.302 122.211 185.807 116.333 208.756 122.008C211.479 118.658 216.57 117.498 220.475 119.337C224.126 117.474 223.94 112.306 223.481 108.232C223.023 104.159 223.725 98.7745 227.73 97.9014ZM163.332 287.988C161.829 286.323 163.304 287.307 163.304 287.307L163.332 288.175V288.572C163.332 288.572 159.689 287.162 157.939 286.591C187.868 296.701 222.699 290.82 247.649 271.442C272.6 252.065 286.92 219.774 284.533 188.273C282.146 156.772 263.124 127.008 235.539 111.612C234.881 111.244 234.144 110.873 233.408 111.033C232.462 111.238 231.925 112.213 231.509 113.087C230.125 115.999 228.74 118.912 227.355 121.825C230.617 123.74 232.36 127.924 231.423 131.588C250.09 143.42 263.089 163.803 265.943 185.719C268.797 207.634 261.453 230.667 246.438 246.885C231.424 263.103 209.025 272.198 186.954 271.039C181.782 270.767 176.211 270.051 171.754 272.689C166.6 275.74 164.749 282.169 163.332 287.988Z" fill="white"/>
<path d="M155.779 152.049C155.359 152.055 155.178 152.575 155.11 152.989C154.854 154.566 154.598 156.144 154.342 157.721C156.314 157.68 158.536 157.528 159.818 156.03C158.052 155.732 156.732 153.824 157.077 152.066C157.705 153.036 158.554 153.863 159.541 154.464C160.032 154.764 160.6 155.057 160.792 155.6C161.11 156.497 160.217 157.327 159.437 157.873C158.658 158.419 157.786 159.29 158.154 160.168C157.433 159.337 156.378 158.804 155.281 158.719C154.653 158.67 153.959 158.743 153.456 158.363C152.647 157.75 152.923 156.476 153.371 155.565C153.818 154.653 154.362 153.573 153.86 152.691C153.485 152.03 152.606 151.704 152.408 150.971C152.119 149.901 153.444 149.155 154.517 148.881C155.264 148.69 156.05 148.521 156.798 148.707C157.546 148.893 158.235 149.542 158.208 150.312C157.852 151.31 156.838 152.035 155.779 152.049ZM157.53 150.007C156.458 149.4 155.029 149.497 154.049 150.242C153.727 150.487 153.433 150.915 153.628 151.269C155.025 151.358 156.45 150.897 157.53 150.007Z" fill="#012A3B"/>
<path d="M233.238 208.353C232.766 208.166 232.347 207.848 232.042 207.443C233.18 206.946 234.114 205.996 234.592 204.849C234.897 204.12 235.986 204.107 236.641 204.55C237.295 204.993 237.704 205.716 238.3 206.236C238.895 206.755 239.888 207.016 240.433 206.444C241.07 205.778 242.306 206.315 242.63 207.178C242.953 208.041 242.669 209 242.384 209.876C242.218 210.386 242.037 210.919 241.641 211.279C241.245 211.639 240.561 211.742 240.194 211.352C238.757 209.819 235.887 210.068 234.734 211.825C233.582 211.131 232.951 209.667 233.238 208.353ZM235.317 205.988C234.288 207.028 233.939 208.685 234.462 210.052C234.582 210.367 234.985 210.702 235.193 210.437C236.15 209.22 237.893 208.688 239.366 209.162C239.645 209.252 239.893 208.884 239.813 208.602C239.733 208.32 239.47 208.137 239.224 207.978C238.172 207.294 237.12 206.61 236.068 205.926C235.945 205.847 235.81 205.764 235.665 205.778C235.527 205.792 235.415 205.889 235.317 205.988ZM240.984 210.947C241.414 209.96 241.705 208.913 241.847 207.847C241.878 207.611 241.762 207.256 241.542 207.347C240.239 207.95 239.925 209.979 240.984 210.947Z" fill="#012A3B"/>
<path d="M200.462 208.947C198.507 207.443 196.03 206.238 195.215 203.91C193.828 199.952 189.43 197.883 187.253 194.298C185.414 191.271 185.359 187.481 185.908 183.982C187.283 175.217 192.702 166.694 201.001 163.556C204.961 162.059 209.283 161.85 213.517 161.894C217.16 161.931 220.926 162.175 224.172 163.83C227.418 165.486 230.024 168.893 229.682 172.521C229.545 173.981 228.952 175.381 228.925 176.847C228.85 180.863 232.785 183.633 236.264 185.641C239.619 187.579 242.974 189.516 246.329 191.453C248.061 192.453 248.297 194.812 248.334 196.811C248.433 202.278 248.533 207.744 248.633 213.211C248.652 214.304 248.67 215.413 248.388 216.469C248.084 217.608 247.446 218.625 246.817 219.622C240.546 229.565 233.741 239.997 223.159 245.116C220.843 246.237 218.4 247.07 215.964 247.9C213.688 248.676 211.412 249.452 209.136 250.227C207.455 250.8 205.722 251.381 203.948 251.28C202.175 251.18 200.329 250.231 199.706 248.568C199.345 247.602 199.431 246.531 199.583 245.51C200.097 242.037 201.306 238.668 203.118 235.66C205.646 231.463 207.165 226.569 206.871 221.679C206.577 216.788 204.346 211.933 200.462 208.947ZM192.672 197.357C197.384 201.739 201.57 206.686 205.114 212.057C206.334 213.907 207.49 215.832 208.141 217.951C209.403 222.059 208.653 226.54 207.194 230.583C205.736 234.625 203.597 238.388 201.978 242.369C201.081 244.573 200.526 247.523 202.409 248.979C203.957 250.177 206.181 249.555 208.02 248.883C210.778 247.875 213.537 246.867 216.295 245.859C218.584 245.022 220.879 244.183 223.052 243.08C232.983 238.04 239.342 228.133 245.224 218.676C245.756 217.82 246.295 216.949 246.571 215.98C246.859 214.971 246.849 213.905 246.836 212.857C246.782 208.232 246.727 203.608 246.673 198.983C246.653 197.356 246.619 195.663 245.883 194.212C244.57 191.624 241.509 190.578 238.876 189.358C234.926 187.528 231.392 184.805 228.613 181.453C227.897 180.588 227.212 179.643 226.992 178.542C226.6 176.586 227.744 174.663 227.914 172.675C228.192 169.42 225.736 166.422 222.773 165.044C219.811 163.666 216.434 163.565 213.167 163.539C210.069 163.515 206.933 163.54 203.936 164.323C195.01 166.652 188.903 175.551 187.593 184.682C187.221 187.272 187.193 190.027 188.351 192.374C189.33 194.358 191.052 195.851 192.672 197.357Z" fill="#012A3B"/>
<path d="M149.703 335.416C153.184 337.533 157.32 338.235 161.354 338.812C167.769 339.73 174.216 340.435 180.678 340.924C189.004 341.555 197.866 341.712 205.107 337.556C205.642 337.249 206.188 336.896 206.481 336.353C207.369 334.703 205.341 332.916 203.497 332.587C201.652 332.257 199.52 332.446 198.172 331.144C200.887 329.795 204.304 329.981 206.857 331.616C209.41 333.25 211.008 336.276 210.919 339.306C210.846 341.791 209.73 344.183 209.845 346.665C209.987 349.694 206.899 351.796 204.081 352.915C195.124 356.471 185.216 356.563 175.58 356.422C167.043 356.296 158.175 355.945 150.588 352.027C148.68 351.042 146.816 349.773 145.761 347.902C144.814 346.223 144.616 344.239 144.437 342.32C144.078 338.46 143.852 334.144 146.338 331.17C148.709 328.334 152.758 327.69 156.444 327.423C158.225 327.295 158.851 324.932 158.525 323.177C158.2 321.422 157.426 319.552 158.189 317.939C159.715 314.718 165.012 316.302 167.735 314.003C168.639 313.24 170.092 314.598 169.74 315.728C169.389 316.857 168.062 317.385 166.879 317.407C165.697 317.43 164.519 317.104 163.342 317.212C162.164 317.32 160.893 318.073 160.793 319.251C171.649 323.607 183.907 324.386 195.227 321.438C193.279 319.053 190.158 317.675 187.083 317.841C187.132 317.082 187.981 316.653 188.729 316.515C192.118 315.888 195.607 318.259 196.905 321.452C198.203 324.644 197.594 328.376 195.976 331.419C194.504 330.961 194.621 328.881 194.858 327.358C195.096 325.835 194.47 323.636 192.957 323.929C182.617 325.932 171.752 325.155 161.802 321.699C161.043 321.435 160.56 322.503 160.467 323.301C160.121 326.287 159.944 329.763 162.151 331.804C163.234 332.806 164.707 333.251 166.138 333.613C173.912 335.576 182.09 335.93 190.005 334.647C191.113 334.467 192.524 334.392 193.065 335.375C187.068 338.094 180.157 337.476 173.606 336.803C170.51 336.485 167.352 336.151 164.513 334.875C161.745 333.631 159.402 331.543 156.572 330.448C153.741 329.352 149.949 329.637 148.406 332.25C148.235 332.538 148.096 332.854 148.072 333.188C148.003 334.155 148.874 334.912 149.703 335.416ZM207.983 347.366C209.244 344.547 208.083 341.314 207.71 338.248C199.11 344.122 187.8 343.615 177.442 342.528C171.436 341.898 165.443 341.15 159.467 340.285C155.592 339.723 151.522 339.025 148.492 336.544C147.679 335.878 146.775 337.274 146.64 338.317C146.249 341.348 145.908 344.646 147.483 347.267C149.21 350.14 152.716 351.335 155.971 352.138C170.295 355.67 185.455 355.76 199.819 352.398C203.05 351.642 206.628 350.395 207.983 347.366Z" fill="#012A3B"/>
<path d="M225.685 97.3227C227.377 96.9537 229.11 97.6068 230.704 98.286C261.21 111.284 285.012 139.05 293.195 171.184C301.378 203.317 293.756 239.086 273.182 265.091C252.609 291.097 219.555 306.746 186.4 306.177C185.726 310.028 185.052 313.879 184.378 317.73C184.377 314.466 184.325 311.012 182.613 308.234C180.901 305.455 176.889 303.828 174.266 305.77C170.683 310.049 173.452 317.804 178.935 318.845C177.863 321.36 173.727 320.577 172.337 318.222C170.947 315.867 171.263 312.936 171.048 310.21C170.834 307.484 169.576 304.349 166.894 303.814C158.934 302.226 151.126 299.875 143.613 296.802C138.751 294.813 133.146 290.906 134.286 285.778C135.127 281.99 139.609 279.962 143.456 280.471C147.303 280.981 150.621 283.327 153.765 285.601C155.405 279.934 157.045 274.267 158.685 268.6C153.523 268.839 152.074 261.277 147.725 258.487C127.828 245.721 114.563 223.158 113.086 199.563C111.609 175.969 121.956 151.927 140.106 136.78C158.257 121.633 183.762 115.754 206.711 121.429C209.434 118.079 214.524 116.92 218.43 118.759C222.081 116.896 221.895 111.727 221.436 107.654C220.977 103.58 221.679 98.1958 225.685 97.3227V97.3227ZM257.671 220.752C266.618 197.243 262.411 169.201 246.962 149.352C245.843 147.914 244.579 146.452 242.85 145.875C238.946 144.57 235.042 143.265 231.137 141.96C231.561 143.607 230.244 145.297 228.654 145.899C227.064 146.501 225.297 146.297 223.61 146.082C220.606 145.7 217.505 145.278 214.91 143.715C212.316 142.153 210.349 139.128 210.977 136.165C211.479 133.798 208.578 132.281 206.247 131.632C200.162 129.936 194.078 128.239 187.993 126.543C186.666 126.173 185.247 125.744 184.4 124.659C183.552 123.573 183.719 121.626 185.024 121.185C174.827 121.458 164.699 124.077 155.649 128.782C162.864 132.522 170.217 136.363 175.866 142.206C180.296 146.788 183.626 152.931 183.089 159.282C182.624 164.785 179.268 169.762 174.897 173.138C170.526 176.514 165.213 178.455 159.857 179.801C151.954 181.788 142.381 182.1 136.943 176.031C135.362 174.266 132.535 174.724 130.242 175.326C126.374 176.343 122.506 177.36 118.637 178.378C117.737 178.614 116.646 179.074 116.616 180.005C116.523 182.828 118.615 185.572 121.362 186.229C124.108 186.887 127.216 185.389 128.412 182.83C129.132 181.288 131.304 181.048 132.895 181.651C134.486 182.255 135.802 183.438 137.385 184.063C139.893 185.054 142.838 184.557 145.264 185.735C149.311 187.699 150 193.211 149.228 197.642C147.796 205.867 143.132 213.485 136.459 218.502C132.079 221.793 132.84 228.617 135.043 233.632C137.247 238.648 140.525 243.692 139.759 249.116C136.754 242.833 134.209 236.329 132.152 229.674C131.017 226.003 130.368 221.238 133.497 219.008C140.146 214.271 145.08 207.178 147.207 199.296C148.483 194.571 147.848 188.12 143.166 186.7C141.351 186.149 139.343 186.558 137.54 185.968C136.031 185.474 134.822 184.331 133.372 183.682C131.923 183.032 129.882 183.088 129.117 184.48C126.511 189.222 118.513 189.416 115.68 184.806C112.39 208.296 121.287 233.161 138.733 249.231C156.179 265.302 181.689 272.132 204.831 266.929C227.973 261.725 248.104 244.633 256.992 222.641C254.522 221.54 253.123 218.811 252.762 216.132C252.401 213.452 252.883 210.742 253.15 208.051C253.687 202.64 253.35 197.144 252.156 191.839C251.834 190.412 251.204 188.752 249.772 188.456C245.474 187.569 241.395 185.637 237.986 182.873C235.396 180.774 233.222 176.614 235.742 174.432C236.916 173.415 235.25 171.74 234.643 170.31C233.361 167.292 237.285 164.813 240.422 163.856C244.099 162.734 247.777 161.612 251.455 160.49C251.852 160.369 252.272 160.247 252.675 160.345C253.848 160.631 253.765 162.524 252.779 163.219C251.792 163.915 250.476 163.802 249.27 163.773C244.471 163.659 239.653 165.415 236.053 168.59C237.654 170.361 238.066 173.112 237.054 175.274C235.836 177.878 237.565 181.037 239.956 182.632C242.347 184.228 245.264 184.772 247.947 185.803C250.63 186.834 253.335 188.665 253.985 191.465C255.3 197.138 255.587 203.048 254.826 208.822C254.251 213.179 253.713 218.842 257.671 220.752ZM161.287 287.409C159.784 285.744 160.156 283.104 161.093 281.067C162.03 279.029 163.445 277.163 163.842 274.955C164.238 272.748 163.042 269.994 160.806 269.822C159.168 275.219 157.531 280.615 155.893 286.012C185.823 296.122 220.653 290.241 245.604 270.863C270.554 251.486 284.874 219.196 282.488 187.695C280.101 156.194 261.079 126.43 233.494 111.033C232.836 110.666 232.099 110.294 231.362 110.454C230.417 110.659 229.88 111.634 229.464 112.508C228.079 115.421 226.695 118.333 225.31 121.246C228.572 123.161 230.315 127.345 229.377 131.01C248.045 142.841 261.044 163.224 263.898 185.14C266.752 207.056 259.407 230.088 244.393 246.306C229.379 262.524 206.979 271.619 184.909 270.46C179.737 270.188 174.165 269.472 169.708 272.111C164.555 275.161 162.704 281.591 161.287 287.409H161.287ZM231.754 100.839C230.052 100.08 228.2 99.3503 226.372 99.7128C224.544 100.075 222.921 102.012 223.586 103.753C255.634 116.836 279.558 148.011 283.905 182.352C288.252 216.693 272.851 252.845 245.075 273.502C217.299 294.159 178.244 298.504 146.607 284.459C143.534 283.094 139.339 281.818 137.312 284.501C136.064 286.152 136.482 288.619 137.74 290.262C138.999 291.906 140.906 292.903 142.774 293.793C176.524 309.877 218.804 306.355 249.428 284.91C280.053 263.465 297.819 224.938 294.246 187.723C290.673 150.507 265.9 116.065 231.754 100.839ZM117.949 176.886C121.887 175.81 125.825 174.735 129.763 173.66C132.479 172.918 135.842 172.35 137.718 174.449C140.747 177.84 145.438 179.391 149.984 179.477C154.53 179.563 158.994 178.339 163.318 176.934C169.212 175.02 175.491 172.318 178.312 166.801C179.97 163.558 181.673 160.113 181.448 156.478C181.24 153.127 179.422 150.119 177.654 147.265C176.169 144.866 174.646 142.424 172.476 140.621C168.774 137.546 163.544 136.629 160.16 133.205C158.205 131.226 155.098 130.744 152.385 131.36C149.672 131.975 147.274 133.532 145.035 135.184C132.199 144.654 122.525 158.335 117.875 173.593C117.542 174.685 117.264 175.972 117.949 176.886ZM229.73 141.286C230.987 139.479 233.825 140.109 235.697 141.265C237.57 142.422 239.587 143.988 241.719 143.442C230.074 131.63 214.475 123.787 198.048 121.484C193.796 120.888 188.921 120.851 185.864 123.866C193.513 126.161 201.162 128.455 208.811 130.749C209.817 131.051 210.879 131.388 211.568 132.181C212.78 133.575 212.347 135.693 212.684 137.509C213.169 140.127 215.367 142.164 217.825 143.187C220.283 144.211 222.996 144.393 225.653 144.563C226.576 144.622 227.606 144.647 228.303 144.039C229.089 143.353 229.134 142.142 229.73 141.286ZM227.407 129.693C228.122 128.13 227.478 126.212 226.291 124.969C225.104 123.726 223.475 123.018 221.88 122.379C219.083 121.257 216.181 120.233 213.169 120.152C212.414 120.132 211.583 120.202 211.041 120.728C210.499 121.254 210.549 122.374 211.272 122.592C216.91 124.298 222.341 126.688 227.407 129.693ZM172.446 268.668C166.963 267.646 161.627 265.843 156.647 263.33C156.235 263.122 155.797 262.904 155.338 262.947C154.878 262.99 154.425 263.42 154.541 263.867C154.62 264.169 154.913 264.357 155.182 264.516C158.045 266.199 160.932 267.893 164.072 268.971C167.213 270.049 170.665 270.481 173.864 269.589C173.756 268.997 173.038 268.778 172.446 268.668ZM227.807 107.903C227.377 107.272 226.368 107.318 225.771 107.794C225.175 108.27 224.888 109.025 224.626 109.742C223.535 112.741 222.443 115.741 221.352 118.74C221.252 119.015 221.15 119.303 221.182 119.594C221.277 120.441 222.478 120.748 223.207 120.307C223.936 119.866 224.282 119.01 224.581 118.212C225.629 115.415 226.678 112.618 227.727 109.821C227.961 109.196 228.183 108.453 227.807 107.903V107.903Z" fill="#012A3B"/>
</g>
<defs>
<clipPath id="clip0">
<rect width="259.243" height="259.243" fill="white" transform="translate(75.064 97.216)"/>
</clipPath>
</defs>
</svg>
